<svg id="Capa_1" data-name="Capa 1" xmlns="http://www.w3.org/2000/svg" viewBox="0 0 600 600"><defs><style>.cls-1{fill:#e000e0;}.cls-2{fill:none;stroke:#e000e0;stroke-linecap:round;stroke-miterlimit:10;stroke-width:14px;}</style></defs><title>WeatherAppAssets</title><circle class="cls-1" cx="299.5" cy="299.5" r="193.31"/><line class="cls-2" x1="299.95" y1="89.89" x2="299.95" y2="41"/><line class="cls-2" x1="299.95" y1="558" x2="299.95" y2="509.11"/><line class="cls-2" x1="510.92" y1="299.95" x2="559.81" y2="299.95"/><line class="cls-2" x1="39.19" y1="299.95" x2="88.08" y2="299.95"/><line class="cls-2" x1="448.03" y1="151.61" x2="482.61" y2="117.03"/><line class="cls-2" x1="117.03" y1="482.61" x2="151.61" y2="448.03"/><line class="cls-2" x1="448.67" y1="449.31" x2="483.25" y2="483.89"/><line class="cls-2" x1="115.11" y1="115.75" x2="149.69" y2="150.33"/><line class="cls-2" x1="492.06" y1="216.61" x2="536.91" y2="197.14"/><line class="cls-2" x1="62.64" y1="402.97" x2="107.5" y2="383.5"/><line class="cls-2" x1="383.35" y1="493.76" x2="402.81" y2="538.61"/><line class="cls-2" x1="195.55" y1="61.03" x2="215.01" y2="105.88"/><line class="cls-2" x1="376.9" y1="105.02" x2="394.85" y2="59.54"/><line class="cls-2" x1="205.03" y1="540.43" x2="222.99" y2="494.95"/><line class="cls-2" x1="496.01" y1="377.86" x2="541.49" y2="395.81"/><line class="cls-2" x1="57.22" y1="204.67" x2="102.7" y2="222.62"/></svg>