<svg id="Layer_1" data-name="Layer 1" xmlns="http://www.w3.org/2000/svg" viewBox="0 0 1200 843"><defs><style>.cls-1{fill:#efefef;}.cls-2{fill:#e000e0;}.cls-3{fill:none;stroke:#e000e0;stroke-linecap:round;stroke-miterlimit:10;stroke-width:14px;}</style></defs><title>weatherapp_project-thumbnail</title><path class="cls-1" d="M454,276v58.5H442.39V295.94l-8.09,38.55H420.19L412,295.94v38.55H400.42V276h16.11l10.71,47.54L437.89,276Z"/><path class="cls-1" d="M465.21,334.49V278.93h11v55.56Z"/><path class="cls-1" d="M498.22,298.71v35.78h-11V278.93h15.31l9,36v-36h11v55.56H507.28Z"/><path class="cls-1" d="M533.53,334.49V278.93h11v55.56Z"/><path class="cls-1" d="M580.51,311.6h-26v-9.78h26Z"/><path class="cls-1" d="M589.54,276h25.65a8.55,8.55,0,0,1,6,2.32,7.39,7.39,0,0,1,2.56,5.67v15.07a13.07,13.07,0,0,1-5.11,10.75,18.64,18.64,0,0,1-12,3.84h-5.5v20.85H589.54Zm11.61,10.82v16h5.5c3.66,0,5.5-1.26,5.5-3.77V286.81Z"/><path class="cls-1" d="M643.12,314.68v19.81h-11V278.93h24.37a8.15,8.15,0,0,1,5.71,2.18,7.07,7.07,0,0,1,2.45,5.39v14.31a10.42,10.42,0,0,1-4.25,8.72,10.47,10.47,0,0,1,4.25,8.78v16.18H653.57V318.31a3.38,3.38,0,0,0-1.18-2.59,4,4,0,0,0-2.77-1Zm6.5-10.27a4,4,0,0,0,2.77-1.07,3.2,3.2,0,0,0,1.18-2.53V289.2H643.12v15.21Z"/><path class="cls-1" d="M699,278.93a8.14,8.14,0,0,1,5.71,2.18,7.07,7.07,0,0,1,2.45,5.39v40.42a7,7,0,0,1-2.45,5.36,8.12,8.12,0,0,1-5.71,2.21H682.75a8.22,8.22,0,0,1-5.74-2.21,7,7,0,0,1-2.42-5.36V286.5a7.07,7.07,0,0,1,2.42-5.39,8.24,8.24,0,0,1,5.74-2.18ZM685.62,289.2v35h10.44v-35Z"/><path class="cls-1" d="M719.64,324.22q5.25,0,5.25-3.63V278.93h11v41.66a12.56,12.56,0,0,1-4.84,10.27,17.88,17.88,0,0,1-11.44,3.63h-5.88V324.22Z"/><path class="cls-1" d="M757.43,324.22h18.39v10.27H746.4V278.93h29.42V289.2H757.43v12.34h15.31v10.3H757.43Z"/><path class="cls-1" d="M804.83,289.2H794.39v35h10.44v-8.5h11.06v11.2a7,7,0,0,1-2.45,5.36,8.12,8.12,0,0,1-5.71,2.21H791.52a8.24,8.24,0,0,1-5.74-2.21,7,7,0,0,1-2.42-5.36V286.5a7.07,7.07,0,0,1,2.42-5.39,8.26,8.26,0,0,1,5.74-2.18h16.21a8.14,8.14,0,0,1,5.71,2.18,7.07,7.07,0,0,1,2.45,5.39v11.17H804.83Z"/><path class="cls-1" d="M831.38,289.2H820.59V278.93h32.54V289.2H842.38v45.29h-11Z"/><path class="cls-1" d="M879.06,289.2H868.62V298q0,3.56,5.22,3.56a17.61,17.61,0,0,1,11.41,3.67,12.41,12.41,0,0,1,4.87,10.23v11.48a7,7,0,0,1-2.45,5.36,8.12,8.12,0,0,1-5.71,2.21H865.75a8.24,8.24,0,0,1-5.74-2.21,7,7,0,0,1-2.42-5.36v-11.2h11v8.5h10.44v-8.78q0-3.6-5.22-3.6a17.73,17.73,0,0,1-11.38-3.63A12.41,12.41,0,0,1,857.59,298V286.5a7.07,7.07,0,0,1,2.42-5.39,8.26,8.26,0,0,1,5.74-2.18H882a8.14,8.14,0,0,1,5.71,2.18,7.07,7.07,0,0,1,2.45,5.39v11.17H879.06Z"/><circle class="cls-2" cx="138.52" cy="363.43" r="96.79"/><line class="cls-3" x1="138.75" y1="258.48" x2="138.75" y2="234"/><line class="cls-3" x1="138.75" y1="492.86" x2="138.75" y2="468.38"/><line class="cls-3" x1="244.38" y1="363.66" x2="268.86" y2="363.66"/><line class="cls-3" x1="8.19" y1="363.66" x2="32.67" y2="363.66"/><line class="cls-3" x1="212.89" y1="289.38" x2="230.2" y2="272.07"/><line class="cls-3" x1="47.16" y1="455.11" x2="64.48" y2="437.8"/><line class="cls-3" x1="213.22" y1="438.44" x2="230.53" y2="455.75"/><line class="cls-3" x1="46.2" y1="271.43" x2="63.51" y2="288.74"/><line class="cls-3" x1="234.94" y1="321.93" x2="257.39" y2="312.18"/><line class="cls-3" x1="19.93" y1="415.23" x2="42.39" y2="405.49"/><line class="cls-3" x1="180.51" y1="460.69" x2="190.25" y2="483.15"/><line class="cls-3" x1="86.48" y1="244.03" x2="96.22" y2="266.48"/><line class="cls-3" x1="177.28" y1="266.05" x2="186.26" y2="243.28"/><line class="cls-3" x1="91.23" y1="484.06" x2="100.21" y2="461.29"/><line class="cls-3" x1="236.91" y1="402.66" x2="259.68" y2="411.65"/><line class="cls-3" x1="17.22" y1="315.95" x2="39.99" y2="324.94"/><path class="cls-1" d="M256.87,538.29h-8.94L210.68,406.66l-.53-6.83-.8,6.83-37,131.63h-8.94L112.55,363.36h17.23l37.51,133,.53,6.47.54-6.47,36.85-133h9.61l36.85,133,.53,6.47.67-6.47,37.38-133h17.22Z"/><path class="cls-1" d="M396.44,518.28A36.7,36.7,0,0,1,387.83,530,40.62,40.62,0,0,1,375,537.86a42.56,42.56,0,0,1-15.62,2.87H348.45a42.56,42.56,0,0,1-15.62-2.87A40.62,40.62,0,0,1,320,530a36.7,36.7,0,0,1-8.61-11.71A33.3,33.3,0,0,1,308.26,504V447.65a33.3,33.3,0,0,1,3.14-14.27A36.81,36.81,0,0,1,320,421.67a40.62,40.62,0,0,1,12.82-7.87,42.56,42.56,0,0,1,15.62-2.87h10.94A42.56,42.56,0,0,1,375,413.8a40.62,40.62,0,0,1,12.82,7.87,36.81,36.81,0,0,1,8.61,11.71,33.3,33.3,0,0,1,3.14,14.27v29.4h-74.9v27.81a19.57,19.57,0,0,0,1.87,8.48,22,22,0,0,0,5.07,6.89,24.07,24.07,0,0,0,7.55,4.64,25,25,0,0,0,9.28,1.71h10.94a25,25,0,0,0,9.28-1.71,24.18,24.18,0,0,0,7.55-4.64,22,22,0,0,0,5.07-6.89,19.57,19.57,0,0,0,1.87-8.48v-8.29L399.58,499v5A33.3,33.3,0,0,1,396.44,518.28ZM383.16,446.8a19.57,19.57,0,0,0-1.87-8.48,22,22,0,0,0-5.07-6.89,24.18,24.18,0,0,0-7.55-4.64,25,25,0,0,0-9.28-1.71H348.45a25,25,0,0,0-9.28,1.71,24.07,24.07,0,0,0-7.55,4.64,22,22,0,0,0-5.07,6.89,19.57,19.57,0,0,0-1.87,8.48v18.54h58.48Z"/><path class="cls-1" d="M501,538.29,492,525.85a42.08,42.08,0,0,1-32.44,14.88h-4.14a42.6,42.6,0,0,1-15.62-2.87A40.69,40.69,0,0,1,426.94,530a36.7,36.7,0,0,1-8.61-11.71A33.15,33.15,0,0,1,415.19,504v-1.22a33.15,33.15,0,0,1,3.14-14.27,36.7,36.7,0,0,1,8.61-11.71,40.69,40.69,0,0,1,12.81-7.87,42.6,42.6,0,0,1,15.62-2.87h34.72V446.8a19.72,19.72,0,0,0-1.87-8.48,21.91,21.91,0,0,0-5.08-6.89,24,24,0,0,0-7.54-4.64,25.08,25.08,0,0,0-9.28-1.71h-9.61a25,25,0,0,0-9.28,1.71,24,24,0,0,0-7.54,4.64,21.91,21.91,0,0,0-5.08,6.89,19.72,19.72,0,0,0-1.87,8.48v4.51l-16.42-2.44v-1.22a33.3,33.3,0,0,1,3.14-14.27,36.81,36.81,0,0,1,8.61-11.71,40.62,40.62,0,0,1,12.82-7.87,42.56,42.56,0,0,1,15.62-2.87h9.61a42.56,42.56,0,0,1,15.62,2.87,40.62,40.62,0,0,1,12.82,7.87,36.81,36.81,0,0,1,8.61,11.71,33.3,33.3,0,0,1,3.14,14.27v90.64Zm-10.94-60.51H455.37a25.12,25.12,0,0,0-9.28,1.71,23.56,23.56,0,0,0-7.54,4.7,22.59,22.59,0,0,0-5.07,6.95,19.57,19.57,0,0,0-1.87,8.48v5.24a19.57,19.57,0,0,0,1.87,8.48,21.88,21.88,0,0,0,5.07,6.89,24.14,24.14,0,0,0,7.54,4.64,25.12,25.12,0,0,0,9.28,1.71h10.95a25.08,25.08,0,0,0,9.28-1.71,24,24,0,0,0,7.54-4.64,21.91,21.91,0,0,0,5.08-6.89,19.72,19.72,0,0,0,1.87-8.48Z"/><path class="cls-1" d="M571.91,538.29a38.76,38.76,0,0,1-14.08-2.56,35.55,35.55,0,0,1-11.48-7.08,34.63,34.63,0,0,1-7.75-10.49,29.23,29.23,0,0,1-2.87-12.81V427.64H511.17V413.37h24.56v-30l16.42-2.44v32.45h34.72v14.27H552.15v78.44a16.09,16.09,0,0,0,1.54,7,18.21,18.21,0,0,0,4.2,5.67,19.79,19.79,0,0,0,6.28,3.84,21,21,0,0,0,7.74,1.41h15v14.27Z"/><path class="cls-1" d="M674.7,538.29V446.8a19.57,19.57,0,0,0-1.87-8.48,22,22,0,0,0-5.07-6.89,24.07,24.07,0,0,0-7.55-4.64,25,25,0,0,0-9.27-1.71H640a25,25,0,0,0-9.28,1.71,24,24,0,0,0-7.54,4.64,21.91,21.91,0,0,0-5.08,6.89,19.72,19.72,0,0,0-1.87,8.48v91.49H599.8V363.36h16.42v60.5a39.36,39.36,0,0,1,13.49-9.51,42.45,42.45,0,0,1,17.09-3.42h4.14a42.64,42.64,0,0,1,15.62,2.87,40.69,40.69,0,0,1,12.81,7.87A36.81,36.81,0,0,1,688,433.38a33.3,33.3,0,0,1,3.14,14.27v90.64Z"/><path class="cls-1" d="M794.91,518.28A36.7,36.7,0,0,1,786.3,530a40.62,40.62,0,0,1-12.82,7.87,42.56,42.56,0,0,1-15.62,2.87H746.92a42.66,42.66,0,0,1-15.63-2.87A40.69,40.69,0,0,1,718.48,530a36.7,36.7,0,0,1-8.61-11.71A33.15,33.15,0,0,1,706.73,504V447.65a33.15,33.15,0,0,1,3.14-14.27,36.81,36.81,0,0,1,8.61-11.71,40.69,40.69,0,0,1,12.81-7.87,42.66,42.66,0,0,1,15.63-2.87h10.94a42.56,42.56,0,0,1,15.62,2.87,40.62,40.62,0,0,1,12.82,7.87,36.81,36.81,0,0,1,8.61,11.71,33.3,33.3,0,0,1,3.14,14.27v29.4h-74.9v27.81a19.57,19.57,0,0,0,1.87,8.48,22,22,0,0,0,5.07,6.89,24.07,24.07,0,0,0,7.55,4.64,25,25,0,0,0,9.28,1.71h10.94a25.08,25.08,0,0,0,9.28-1.71,24,24,0,0,0,7.54-4.64,21.91,21.91,0,0,0,5.08-6.89,19.72,19.72,0,0,0,1.87-8.48v-8.29L798.05,499v5A33.3,33.3,0,0,1,794.91,518.28ZM781.63,446.8a19.72,19.72,0,0,0-1.87-8.48,21.91,21.91,0,0,0-5.08-6.89,24,24,0,0,0-7.54-4.64,25.08,25.08,0,0,0-9.28-1.71H746.92a25,25,0,0,0-9.28,1.71,24.07,24.07,0,0,0-7.55,4.64,22,22,0,0,0-5.07,6.89,19.57,19.57,0,0,0-1.87,8.48v18.54h58.48Z"/><path class="cls-1" d="M853.84,427.64a25.08,25.08,0,0,0-9.28,1.71A24.32,24.32,0,0,0,837,434a21.73,21.73,0,0,0-5.07,6.89,19.57,19.57,0,0,0-1.87,8.48v88.93H813.66V413.37h5.47l8.94,12.69a40.21,40.21,0,0,1,14.09-11,42,42,0,0,1,18.49-4.09h9.61v16.71Z"/><path class="cls-1" d="M961.42,497.54H900.8l-12.55,40.75H870.36l56.08-174.93h9.08l56.34,174.93H974.1Zm-55.94-15h51.4L931.64,401.9l-.53-6.46-.53,6.46Z"/><path class="cls-1" d="M1089.94,518.28a36.88,36.88,0,0,1-8.62,11.71,40.69,40.69,0,0,1-12.81,7.87,42.6,42.6,0,0,1-15.62,2.87h-4.14a42.45,42.45,0,0,1-17.09-3.42,39.22,39.22,0,0,1-13.48-9.51v60.5h-16.43V413.37h5.48l8.94,12.69a40.21,40.21,0,0,1,14.09-11,41.92,41.92,0,0,1,18.49-4.09h4.14a42.6,42.6,0,0,1,15.62,2.87,40.69,40.69,0,0,1,12.81,7.87,37,37,0,0,1,8.62,11.71,33.29,33.29,0,0,1,3.13,14.27V504A33.29,33.29,0,0,1,1089.94,518.28Zm-13.29-71.48a19.57,19.57,0,0,0-1.87-8.48,21.73,21.73,0,0,0-5.07-6.89,24.14,24.14,0,0,0-7.54-4.64,25.12,25.12,0,0,0-9.28-1.71h-11a25.08,25.08,0,0,0-9.28,1.71,24,24,0,0,0-7.54,4.64,21.73,21.73,0,0,0-5.07,6.89,19.57,19.57,0,0,0-1.87,8.48v58.06a19.57,19.57,0,0,0,1.87,8.48,21.73,21.73,0,0,0,5.07,6.89,24,24,0,0,0,7.54,4.64,25.08,25.08,0,0,0,9.28,1.71h11a25.12,25.12,0,0,0,9.28-1.71,24.14,24.14,0,0,0,7.54-4.64,21.73,21.73,0,0,0,5.07-6.89,19.57,19.57,0,0,0,1.87-8.48Z"/><path class="cls-1" d="M1196.86,518.28a36.7,36.7,0,0,1-8.61,11.71,40.62,40.62,0,0,1-12.82,7.87,42.56,42.56,0,0,1-15.62,2.87h-4.13a42.41,42.41,0,0,1-17.09-3.42,39.26,39.26,0,0,1-13.49-9.51v60.5h-16.42V413.37h5.48l8.94,12.69a40.12,40.12,0,0,1,14.09-11,41.92,41.92,0,0,1,18.49-4.09h4.13a42.56,42.56,0,0,1,15.62,2.87,40.62,40.62,0,0,1,12.82,7.87,36.81,36.81,0,0,1,8.61,11.71,33.3,33.3,0,0,1,3.14,14.27V504A33.3,33.3,0,0,1,1196.86,518.28Zm-13.28-71.48a19.57,19.57,0,0,0-1.87-8.48,22,22,0,0,0-5.07-6.89,24.18,24.18,0,0,0-7.55-4.64,25,25,0,0,0-9.28-1.71h-10.94a25,25,0,0,0-9.28,1.71,24,24,0,0,0-7.54,4.64,21.91,21.91,0,0,0-5.08,6.89,19.57,19.57,0,0,0-1.87,8.48v58.06a19.57,19.57,0,0,0,1.87,8.48,21.91,21.91,0,0,0,5.08,6.89,24,24,0,0,0,7.54,4.64,25,25,0,0,0,9.28,1.71h10.94a25,25,0,0,0,9.28-1.71,24.18,24.18,0,0,0,7.55-4.64,22,22,0,0,0,5.07-6.89,19.57,19.57,0,0,0,1.87-8.48Z"/></svg>